<?xml version="1.0" encoding="utf-8"?>
<!-- Generator: Adobe Illustrator 21.1.0, SVG Export Plug-In . SVG Version: 6.00 Build 0)  -->
<svg version="1.1" id="Capa_1" xmlns="http://www.w3.org/2000/svg" xmlns:xlink="http://www.w3.org/1999/xlink" x="0px" y="0px"
	 viewBox="0 0 512 459.4" style="enable-background:new 0 0 512 459.4;" xml:space="preserve">
	<path d="M503.8,369.1l-195.7-339C297.3,11.3,277.8,0,256,0c-21.8,0-41.3,11.3-52.1,30.1L8.2,369.1c-10.9,18.9-10.9,41.4,0,60.2c10.9,18.8,30.4,30.1,52.1,30.1h391.4c21.8,0,41.3-11.3,52.1-30.1C514.7,410.4,514.7,387.9,503.8,369.1z M477.9,414.3c-5.5,9.5-15.2,15.1-26.2,15.1H60.3c-10.9,0-20.7-5.6-26.2-15.1s-5.5-20.8,0-30.2l195.7-339C235.3,35.6,245.1,30,256,30c10.9,0,20.7,5.6,26.2,15.1l195.7,339C483.3,393.5,483.3,404.8,477.9,414.3z"/>
	<rect x="241" y="149.7" width="30" height="150"/>
	<path d="M256,329.7c-11,0-20,9-20,20s9,20,20,20c11,0,20-9,20-20S267,329.7,256,329.7z"/>
</svg>
